<svg width="17" height="17" viewBox="0 0 17 17" fill="none" xmlns="http://www.w3.org/2000/svg">
<path d="M7.1 12.3538L13.823 5.63075L12.7693 4.577L7.1 10.2463L4.25 7.39625L3.19625 8.45L7.1 12.3538ZM1.80775 17C1.30258 17 0.875 16.825 0.525 16.475C0.175 16.125 0 15.6974 0 15.1923V1.80775C0 1.30258 0.175 0.875 0.525 0.525C0.875 0.175 1.30258 0 1.80775 0H15.1923C15.6974 0 16.125 0.175 16.475 0.525C16.825 0.875 17 1.30258 17 1.80775V15.1923C17 15.6974 16.825 16.125 16.475 16.475C16.125 16.825 15.6974 17 15.1923 17H1.80775Z" fill="#28150B"/>
</svg>
