<svg width="14" height="14" viewBox="0 0 14 14" fill="none" xmlns="http://www.w3.org/2000/svg">
<path d="M7.00008 9.91669C7.16536 9.91669 7.304 9.86069 7.416 9.74869C7.528 9.63669 7.5838 9.49824 7.58342 9.33335C7.58303 9.16846 7.52703 9.03002 7.41541 8.91802C7.3038 8.80602 7.16536 8.75002 7.00008 8.75002C6.8348 8.75002 6.69636 8.80602 6.58475 8.91802C6.47314 9.03002 6.41714 9.16846 6.41675 9.33335C6.41636 9.49824 6.47236 9.63688 6.58475 9.74927C6.69714 9.86166 6.83558 9.91746 7.00008 9.91669ZM7.00008 7.58335C7.16536 7.58335 7.304 7.52735 7.416 7.41535C7.528 7.30335 7.5838 7.16491 7.58342 7.00002V4.66669C7.58342 4.50141 7.52741 4.36296 7.41541 4.25135C7.30341 4.13974 7.16497 4.08374 7.00008 4.08335C6.83519 4.08296 6.69675 4.13896 6.58475 4.25135C6.47275 4.36374 6.41675 4.50219 6.41675 4.66669V7.00002C6.41675 7.1653 6.47275 7.30394 6.58475 7.41594C6.69675 7.52794 6.83519 7.58374 7.00008 7.58335ZM7.00008 12.8334C6.19314 12.8334 5.4348 12.6801 4.72508 12.3737C4.01536 12.0672 3.398 11.6517 2.873 11.1271C2.348 10.6025 1.93247 9.98513 1.62642 9.27502C1.32036 8.56491 1.16714 7.80658 1.16675 7.00002C1.16636 6.19346 1.31958 5.43513 1.62642 4.72502C1.93325 4.01491 2.34878 3.39755 2.873 2.87294C3.39722 2.34833 4.01458 1.9328 4.72508 1.62635C5.43558 1.31991 6.19391 1.16669 7.00008 1.16669C7.80625 1.16669 8.56458 1.31991 9.27508 1.62635C9.98558 1.9328 10.6029 2.34833 11.1272 2.87294C11.6514 3.39755 12.0671 4.01491 12.3743 4.72502C12.6816 5.43513 12.8346 6.19346 12.8334 7.00002C12.8322 7.80658 12.679 8.56491 12.3737 9.27502C12.0685 9.98513 11.6529 10.6025 11.1272 11.1271C10.6014 11.6517 9.98403 12.0674 9.27508 12.3743C8.56614 12.6811 7.8078 12.8341 7.00008 12.8334Z" fill="#EE4700"/>
</svg>
