<svg width="24" height="24" viewBox="0 0 24 24" fill="none" xmlns="http://www.w3.org/2000/svg">
<mask id="mask0_469_2515" style="mask-type:alpha" maskUnits="userSpaceOnUse" x="0" y="0" width="24" height="24">
<rect width="24" height="24" fill="#D9D9D9"/>
</mask>
<g mask="url(#mask0_469_2515)">
<path d="M16.5 3.74951C17.7686 3.74951 18.8019 4.17073 19.6406 5.00928C20.4792 5.84799 20.9004 6.88127 20.9004 8.1499C20.9004 8.79316 20.7866 9.42957 20.5576 10.061C20.3327 10.6817 19.9255 11.3978 19.3135 12.2114C18.702 13.0244 17.8657 13.9649 16.7969 15.0337C15.726 16.1045 14.3615 17.3887 12.7021 18.8882L12 19.519L11.2979 18.8882C9.64509 17.3888 8.28171 16.1041 7.20703 15.0327C6.13523 13.964 5.29766 13.024 4.68652 12.2114C4.07452 11.3978 3.66733 10.6817 3.44238 10.061C3.21337 9.42957 3.09961 8.79316 3.09961 8.1499C3.09961 6.88128 3.52083 5.84799 4.35938 5.00928C5.19808 4.17073 6.23137 3.74951 7.5 3.74951C8.2752 3.74951 9.00488 3.93011 9.69629 4.29346C10.3878 4.65693 10.9963 5.18147 11.5205 5.87939L12 6.51807L12.4795 5.87939C13.0037 5.18147 13.6122 4.65693 14.3037 4.29346C14.9951 3.9301 15.7248 3.74951 16.5 3.74951Z" fill="#EE8300" stroke="#EE8300" stroke-width="1.2"/>
</g>
</svg>
