<svg width="24" height="24" viewBox="0 0 24 24" fill="none" xmlns="http://www.w3.org/2000/svg">
<mask id="mask0_424_2367" style="mask-type:alpha" maskUnits="userSpaceOnUse" x="0" y="0" width="24" height="24">
<rect width="24" height="24" fill="#D9D9D9"/>
</mask>
<g mask="url(#mask0_424_2367)">
<path d="M16.5 3.89999C17.6541 3.89999 18.5995 4.25808 19.3799 4.96933L19.5342 5.11581C20.3431 5.92491 20.75 6.919 20.75 8.14999C20.75 8.77518 20.6402 9.3938 20.417 10.0094C20.1988 10.6114 19.8008 11.3144 19.1943 12.1207L19.1934 12.1217C18.5876 12.9271 17.7562 13.8616 16.6904 14.9273C15.6218 15.996 14.2592 17.2791 12.6006 18.7779L12 19.318L11.3994 18.7789H11.4004C9.74786 17.2797 8.3863 15.9959 7.31348 14.9264C6.24474 13.8607 5.41208 12.9266 4.80664 12.1217L4.80566 12.1207C4.19923 11.3144 3.80116 10.6114 3.58301 10.0094C3.35978 9.3938 3.25 8.77518 3.25 8.14999C3.25 6.99593 3.60809 6.05051 4.31934 5.27011L4.46582 5.11581C5.27491 4.30688 6.26901 3.89999 7.5 3.89999C8.25071 3.89999 8.956 4.07429 9.62598 4.42636C10.2962 4.77859 10.8883 5.28761 11.4004 5.96933L12 6.76816L12.5996 5.96933C13.1117 5.28761 13.7038 4.77859 14.374 4.42636C15.044 4.07429 15.7493 3.89999 16.5 3.89999Z" stroke="#28150B" stroke-width="1.5"/>
</g>
</svg>
