<svg width="24" height="24" viewBox="0 0 24 24" fill="none" xmlns="http://www.w3.org/2000/svg">
<mask id="mask0_435_1724" style="mask-type:alpha" maskUnits="userSpaceOnUse" x="0" y="0" width="24" height="24">
<rect width="24" height="24" fill="#D9D9D9"/>
</mask>
<g mask="url(#mask0_435_1724)">
<path d="M16.5 3.8999C17.6541 3.8999 18.5995 4.25799 19.3799 4.96924L19.5342 5.11572C20.3431 5.92482 20.75 6.91891 20.75 8.1499C20.75 8.77509 20.6402 9.39371 20.417 10.0093C20.1988 10.6113 19.8008 11.3143 19.1943 12.1206L19.1934 12.1216C18.5876 12.927 17.7562 13.8615 16.6904 14.9272C15.6218 15.9959 14.2592 17.279 12.6006 18.7778L12 19.3179L11.3994 18.7788H11.4004C9.74786 17.2796 8.3863 15.9958 7.31348 14.9263C6.24474 13.8607 5.41208 12.9265 4.80664 12.1216L4.80566 12.1206C4.19923 11.3143 3.80116 10.6113 3.58301 10.0093C3.35978 9.39371 3.25 8.77509 3.25 8.1499C3.25 6.99584 3.60809 6.05042 4.31934 5.27002L4.46582 5.11572C5.27491 4.30679 6.26901 3.8999 7.5 3.8999C8.25071 3.8999 8.956 4.0742 9.62598 4.42627C10.2962 4.77849 10.8883 5.28752 11.4004 5.96924L12 6.76807L12.5996 5.96924C13.1117 5.28752 13.7038 4.77849 14.374 4.42627C15.044 4.0742 15.7493 3.8999 16.5 3.8999Z" stroke="#28150B" stroke-opacity="0.6" stroke-width="1.5"/>
</g>
</svg>
