<svg width="336" height="37" viewBox="0 0 336 37" fill="none" xmlns="http://www.w3.org/2000/svg">
<mask id="path-1-inside-1_435_2211" fill="white">
<path d="M0.48999 2.1709H11.889V34.0157H0.48999V2.1709Z"/>
</mask>
<path d="M0.48999 2.1709V-1.01358H-2.69449V2.1709H0.48999ZM0.48999 34.0157H-2.69449V37.2001H0.48999V34.0157ZM0.48999 2.1709V5.35538H11.889V2.1709V-1.01358H0.48999V2.1709ZM11.889 34.0157V30.8312H0.48999V34.0157V37.2001H11.889V34.0157ZM0.48999 34.0157H3.67447V2.1709H0.48999H-2.69449V34.0157H0.48999Z" fill="#FFFDFD" mask="url(#path-1-inside-1_435_2211)"/>
<path d="M13.4807 3.85645C16.6071 4.22115 19.5441 5.65169 21.7981 7.94922C24.4324 10.6344 25.9172 14.2834 25.9172 18.0938C25.9171 21.9039 24.4323 25.5522 21.7981 28.2373C19.5441 30.5348 16.607 31.9644 13.4807 32.3291V3.85645Z" stroke="#FFFDFD" stroke-width="3.18448"/>
<path d="M32.3869 32.1875V3.45745H48.0154V6.87862H36.0802V16.0147H47.5878V19.4359H36.0802V28.7663H48.0154V32.1875H32.3869ZM75.8601 24.4899H80.0977C79.4238 25.8117 78.6333 26.991 77.7262 28.0277C76.8191 29.0385 75.8083 29.8938 74.6938 30.5935C73.5793 31.2933 72.3612 31.8246 71.0394 32.1875C69.7435 32.5244 68.3698 32.6929 66.9184 32.6929C64.7672 32.6929 62.7716 32.3171 60.9314 31.5655C59.0912 30.7879 57.4972 29.7383 56.1495 28.4164C54.8018 27.0946 53.7391 25.5266 52.9616 23.7123C52.1841 21.8981 51.7953 19.9413 51.7953 17.8419C51.7953 15.7426 52.1711 13.7858 52.9227 11.9715C53.7003 10.1572 54.7499 8.5892 56.0718 7.26739C57.3936 5.91966 58.9616 4.86998 60.7759 4.11836C62.616 3.34082 64.5728 2.95205 66.6463 2.95205C68.1495 2.95205 69.575 3.14643 70.9227 3.5352C72.2964 3.89805 73.5534 4.44233 74.6938 5.16803C75.8601 5.86782 76.8968 6.72311 77.804 7.73391C78.7111 8.74471 79.4498 9.89806 80.0199 11.194H75.8601C74.7716 9.56113 73.4886 8.35594 72.0113 7.5784C70.5599 6.80087 68.8104 6.4121 66.7629 6.4121C65.1819 6.4121 63.7046 6.71015 62.3309 7.30627C60.9573 7.87646 59.7651 8.66696 58.7543 9.67776C57.7694 10.6886 56.9789 11.8937 56.3828 13.2933C55.8126 14.667 55.5275 16.1702 55.5275 17.803C55.5275 19.3581 55.8255 20.8354 56.4217 22.235C57.0178 23.6346 57.8212 24.8527 58.832 25.8894C59.8687 26.9002 61.0739 27.7167 62.4476 28.3387C63.8212 28.9348 65.2856 29.2329 66.8407 29.2329C68.6808 29.2329 70.3007 28.857 71.7003 28.1054C73.1258 27.3538 74.5124 26.1486 75.8601 24.4899ZM83.2309 17.8419C83.2309 15.7685 83.6327 13.8246 84.4361 12.0104C85.2396 10.1961 86.3281 8.62808 87.7018 7.30627C89.0754 5.95853 90.6953 4.8959 92.5614 4.11836C94.4275 3.34082 96.4361 2.95205 98.5873 2.95205C100.635 2.95205 102.553 3.35378 104.341 4.15724C106.155 4.93477 107.736 5.99741 109.084 7.34514C110.432 8.69288 111.494 10.2739 112.272 12.0881C113.075 13.8765 113.477 15.7944 113.477 17.8419C113.477 19.8894 113.075 21.8203 112.272 23.6346C111.494 25.4488 110.419 27.0298 109.045 28.3776C107.697 29.6994 106.104 30.7491 104.263 31.5266C102.449 32.3041 100.505 32.6929 98.4318 32.6929C96.3325 32.6929 94.3627 32.3041 92.5225 31.5266C90.6824 30.7491 89.0754 29.6864 87.7018 28.3387C86.3281 26.991 85.2396 25.4229 84.4361 23.6346C83.6327 21.8203 83.2309 19.8894 83.2309 17.8419ZM86.9631 17.8419C86.9631 19.397 87.2612 20.8743 87.8573 22.2739C88.4793 23.6475 89.2957 24.8527 90.3065 25.8894C91.3433 26.9002 92.5484 27.7167 93.9221 28.3387C95.3217 28.9348 96.8119 29.2329 98.3929 29.2329C99.9739 29.2329 101.451 28.9348 102.825 28.3387C104.199 27.7426 105.391 26.9391 106.402 25.9283C107.438 24.8916 108.255 23.6864 108.851 22.3128C109.447 20.9391 109.745 19.4618 109.745 17.8808C109.745 16.2739 109.447 14.7706 108.851 13.3711C108.255 11.9715 107.438 10.7663 106.402 9.75551C105.365 8.71879 104.147 7.90238 102.747 7.30627C101.348 6.71015 99.8443 6.4121 98.2374 6.4121C96.7083 6.4121 95.2569 6.72311 93.8832 7.34514C92.5096 7.94125 91.3044 8.75767 90.2677 9.79439C89.2569 10.8311 88.4534 12.0493 87.8573 13.4488C87.2612 14.8225 86.9631 16.2868 86.9631 17.8419ZM117.962 32.1875V3.45745H125.465C129.456 3.45745 132.437 4.22203 134.407 5.75119C136.376 7.25443 137.361 9.56113 137.361 12.6713C137.361 15.1853 136.674 17.181 135.301 18.6583C133.927 20.1357 131.893 21.0817 129.197 21.4963L137.167 32.1875H132.579L122.705 18.5028H125.037C127.94 18.5028 130.091 18.0233 131.491 17.0644C132.916 16.1054 133.629 14.654 133.629 12.7102C133.629 10.6626 132.955 9.18532 131.608 8.27819C130.286 7.34514 128.134 6.87862 125.154 6.87862H121.655V32.1875H117.962ZM155.896 32.1875V6.87862H149.754V3.45745H165.771V6.87862H159.59V32.1875H155.896ZM168.912 32.1875V3.45745H184.54V6.87862H172.605V16.0147H184.113V19.4359H172.605V28.7663H184.54V32.1875H168.912ZM189.603 32.1875V3.45745H197.106C201.098 3.45745 204.078 4.22203 206.048 5.75119C208.018 7.25443 209.003 9.56113 209.003 12.6713C209.003 15.1853 208.316 17.181 206.942 18.6583C205.569 20.1357 203.534 21.0817 200.839 21.4963L208.808 32.1875H204.221L194.346 18.5028H196.679C199.581 18.5028 201.733 18.0233 203.132 17.0644C204.558 16.1054 205.27 14.654 205.27 12.7102C205.27 10.6626 204.597 9.18532 203.249 8.27819C201.927 7.34514 199.776 6.87862 196.795 6.87862H193.296V32.1875H189.603ZM213.18 32.1875V3.45745H220.683C224.674 3.45745 227.655 4.22203 229.625 5.75119C231.594 7.25443 232.579 9.56113 232.579 12.6713C232.579 15.1853 231.893 17.181 230.519 18.6583C229.145 20.1357 227.111 21.0817 224.415 21.4963L232.385 32.1875H227.798L217.923 18.5028H220.255C223.158 18.5028 225.309 18.0233 226.709 17.0644C228.134 16.1054 228.847 14.654 228.847 12.7102C228.847 10.6626 228.173 9.18532 226.826 8.27819C225.504 7.34514 223.353 6.87862 220.372 6.87862H216.873V32.1875H213.18ZM234.268 32.1875L246.476 3.45745H250.014L262.26 32.1875H258.217L254.407 23.2458H242.083L238.234 32.1875H234.268ZM243.482 19.8246H252.968L248.264 8.12268L243.482 19.8246ZM263.474 32.1875V28.9607L276.537 6.87862H263.979V3.45745H280.774V6.80086L267.789 28.7663H281.319V32.1875H263.474ZM282.685 32.1875V28.9607L295.747 6.87862H283.19V3.45745H299.985V6.80086L287 28.7663H300.529V32.1875H282.685ZM302.673 17.8419C302.673 15.7685 303.075 13.8246 303.878 12.0104C304.682 10.1961 305.77 8.62808 307.144 7.30627C308.517 5.95853 310.137 4.8959 312.003 4.11836C313.87 3.34082 315.878 2.95205 318.029 2.95205C320.077 2.95205 321.995 3.35378 323.783 4.15724C325.597 4.93477 327.178 5.99741 328.526 7.34514C329.874 8.69288 330.936 10.2739 331.714 12.0881C332.517 13.8765 332.919 15.7944 332.919 17.8419C332.919 19.8894 332.517 21.8203 331.714 23.6346C330.936 25.4488 329.861 27.0298 328.487 28.3776C327.14 29.6994 325.546 30.7491 323.705 31.5266C321.891 32.3041 319.947 32.6929 317.874 32.6929C315.774 32.6929 313.805 32.3041 311.965 31.5266C310.124 30.7491 308.517 29.6864 307.144 28.3387C305.77 26.991 304.682 25.4229 303.878 23.6346C303.075 21.8203 302.673 19.8894 302.673 17.8419ZM306.405 17.8419C306.405 19.397 306.703 20.8743 307.299 22.2739C307.921 23.6475 308.738 24.8527 309.749 25.8894C310.785 26.9002 311.99 27.7167 313.364 28.3387C314.764 28.9348 316.254 29.2329 317.835 29.2329C319.416 29.2329 320.893 28.9348 322.267 28.3387C323.641 27.7426 324.833 26.9391 325.844 25.9283C326.88 24.8916 327.697 23.6864 328.293 22.3128C328.889 20.9391 329.187 19.4618 329.187 17.8808C329.187 16.2739 328.889 14.7706 328.293 13.3711C327.697 11.9715 326.88 10.7663 325.844 9.75551C324.807 8.71879 323.589 7.90238 322.189 7.30627C320.79 6.71015 319.286 6.4121 317.679 6.4121C316.15 6.4121 314.699 6.72311 313.325 7.34514C311.952 7.94125 310.746 8.75767 309.71 9.79439C308.699 10.8311 307.895 12.0493 307.299 13.4488C306.703 14.8225 306.405 16.2868 306.405 17.8419Z" fill="#FFFDFD"/>
</svg>
