<svg width="236" height="25" viewBox="0 0 236 25" fill="none" xmlns="http://www.w3.org/2000/svg">
<mask id="path-1-inside-1_424_2349" fill="white">
<path d="M0 1.5H7.875V23.5H0V1.5Z"/>
</mask>
<path d="M0 1.5V-0.7H-2.2V1.5H0ZM0 23.5H-2.2V25.7H0V23.5ZM0 1.5V3.7H7.875V1.5V-0.7H0V1.5ZM7.875 23.5V21.3H0V23.5V25.7H7.875V23.5ZM0 23.5H2.2V1.5H0H-2.2V23.5H0Z" fill="#28150B" mask="url(#path-1-inside-1_424_2349)"/>
<path d="M8.97461 2.66602C11.1344 2.91799 13.1635 3.90493 14.7207 5.49219C16.5406 7.34725 17.5664 9.86766 17.5664 12.5C17.5664 15.1323 16.5406 17.6528 14.7207 19.5078C13.1635 21.095 11.1344 22.081 8.97461 22.333V2.66602Z" stroke="#28150B" stroke-width="2.2"/>
<path d="M22.2331 22.8847V3.03648H33.0301V5.4H24.7846V11.7117H32.7347V14.0752H24.7846V20.5212H33.0301V22.8847H22.2331ZM52.2666 17.5668H55.1942C54.7286 18.4799 54.1825 19.2946 53.5558 20.0108C52.9291 20.7092 52.2308 21.3 51.4609 21.7835C50.691 22.2669 49.8494 22.634 48.9362 22.8847C48.0409 23.1174 47.092 23.2338 46.0893 23.2338C44.6031 23.2338 43.2244 22.9742 41.9531 22.4549C40.6818 21.9178 39.5806 21.1926 38.6495 20.2794C37.7185 19.3663 36.9843 18.283 36.4472 17.0296C35.91 15.7762 35.6414 14.4243 35.6414 12.974C35.6414 11.5237 35.9011 10.1718 36.4203 8.91842C36.9575 7.66504 37.6826 6.58176 38.5958 5.66859C39.509 4.7375 40.5923 4.01233 41.8457 3.49307C43.1169 2.95591 44.4688 2.68733 45.9012 2.68733C46.9398 2.68733 47.9246 2.82162 48.8556 3.0902C49.8046 3.34088 50.673 3.71689 51.4609 4.21824C52.2666 4.70169 52.9828 5.29257 53.6095 5.99088C54.2362 6.6892 54.7465 7.48599 55.1405 8.38126H52.2666C51.5146 7.25322 50.6283 6.42061 49.6077 5.88345C48.605 5.34629 47.3963 5.07771 45.9818 5.07771C44.8896 5.07771 43.869 5.28362 42.92 5.69544C41.971 6.08936 41.1473 6.63548 40.449 7.33379C39.7686 8.0321 39.2225 8.86471 38.8107 9.8316C38.4168 10.7806 38.2198 11.8191 38.2198 12.9472C38.2198 14.0215 38.4257 15.0421 38.8375 16.009C39.2494 16.9759 39.8044 17.8174 40.5028 18.5337C41.219 19.232 42.0516 19.796 43.0006 20.2257C43.9496 20.6375 44.9612 20.8435 46.0355 20.8435C47.3068 20.8435 48.4259 20.5838 49.3928 20.0646C50.3776 19.5453 51.3355 18.7127 52.2666 17.5668ZM57.3588 12.974C57.3588 11.5416 57.6363 10.1987 58.1914 8.94528C58.7464 7.6919 59.4985 6.60862 60.4475 5.69544C61.3965 4.76436 62.5155 4.03024 63.8047 3.49307C65.0939 2.95591 66.4816 2.68733 67.9678 2.68733C69.3823 2.68733 70.7073 2.96486 71.9428 3.51993C73.1961 4.05709 74.2884 4.79122 75.2195 5.7223C76.1505 6.65339 76.8847 7.74562 77.4218 8.999C77.9769 10.2345 78.2544 11.5595 78.2544 12.974C78.2544 14.3885 77.9769 15.7225 77.4218 16.9759C76.8847 18.2293 76.1416 19.3215 75.1926 20.2526C74.2615 21.1658 73.1603 21.8909 71.889 22.4281C70.6357 22.9652 69.2928 23.2338 67.8603 23.2338C66.41 23.2338 65.0492 22.9652 63.7779 22.4281C62.5066 21.8909 61.3965 21.1568 60.4475 20.2257C59.4985 19.2946 58.7464 18.2114 58.1914 16.9759C57.6363 15.7225 57.3588 14.3885 57.3588 12.974ZM59.9372 12.974C59.9372 14.0483 60.1431 15.0689 60.5549 16.0358C60.9846 16.9848 61.5486 17.8174 62.247 18.5337C62.9632 19.232 63.7958 19.796 64.7448 20.2257C65.7117 20.6375 66.7412 20.8435 67.8335 20.8435C68.9257 20.8435 69.9463 20.6375 70.8953 20.2257C71.8443 19.8139 72.6679 19.2588 73.3662 18.5605C74.0825 17.8443 74.6465 17.0117 75.0583 16.0627C75.4701 15.1137 75.676 14.0931 75.676 13.0009C75.676 11.8907 75.4701 10.8522 75.0583 9.88532C74.6465 8.91842 74.0825 8.08582 73.3662 7.38751C72.65 6.67129 71.8085 6.10727 70.8416 5.69544C69.8747 5.28362 68.8362 5.07771 67.726 5.07771C66.6696 5.07771 65.6669 5.29257 64.7179 5.7223C63.7689 6.13413 62.9363 6.69815 62.2201 7.41437C61.5218 8.13058 60.9667 8.97214 60.5549 9.93903C60.1431 10.888 59.9372 11.8997 59.9372 12.974ZM81.3526 22.8847V3.03648H86.5362C89.2936 3.03648 91.3528 3.5647 92.7136 4.62112C94.0744 5.65963 94.7548 7.25322 94.7548 9.40187C94.7548 11.1387 94.2803 12.5174 93.3313 13.538C92.3823 14.5586 90.9767 15.2122 89.1146 15.4987L94.6205 22.8847H91.4512L84.6293 13.4306H86.2408C88.2462 13.4306 89.7323 13.0993 90.6992 12.4368C91.684 11.7743 92.1764 10.7716 92.1764 9.42873C92.1764 8.0142 91.7109 6.99359 90.7798 6.3669C89.8666 5.7223 88.3805 5.4 86.3213 5.4H83.9041V22.8847H81.3526ZM107.56 22.8847V5.4H103.316V3.03648H114.382V5.4H110.111V22.8847H107.56ZM116.551 22.8847V3.03648H127.348V5.4H119.103V11.7117H127.053V14.0752H119.103V20.5212H127.348V22.8847H116.551ZM130.846 22.8847V3.03648H136.03C138.787 3.03648 140.846 3.5647 142.207 4.62112C143.568 5.65963 144.248 7.25322 144.248 9.40187C144.248 11.1387 143.774 12.5174 142.825 13.538C141.876 14.5586 140.47 15.2122 138.608 15.4987L144.114 22.8847H140.945L134.123 13.4306H135.734C137.74 13.4306 139.226 13.0993 140.193 12.4368C141.178 11.7743 141.67 10.7716 141.67 9.42873C141.67 8.0142 141.204 6.99359 140.273 6.3669C139.36 5.7223 137.874 5.4 135.815 5.4H133.398V22.8847H130.846ZM147.134 22.8847V3.03648H152.318C155.075 3.03648 157.134 3.5647 158.495 4.62112C159.856 5.65963 160.536 7.25322 160.536 9.40187C160.536 11.1387 160.062 12.5174 159.113 13.538C158.164 14.5586 156.758 15.2122 154.896 15.4987L160.402 22.8847H157.233L150.411 13.4306H152.022C154.028 13.4306 155.514 13.0993 156.481 12.4368C157.466 11.7743 157.958 10.7716 157.958 9.42873C157.958 8.0142 157.492 6.99359 156.561 6.3669C155.648 5.7223 154.162 5.4 152.103 5.4H149.686V22.8847H147.134ZM161.703 22.8847L170.137 3.03648H172.581L181.041 22.8847H178.248L175.616 16.7073H167.102L164.443 22.8847H161.703ZM168.069 14.3438H174.622L171.372 6.25947L168.069 14.3438ZM181.88 22.8847V20.6554L190.904 5.4H182.229V3.03648H193.832V5.34629L184.861 20.5212H194.208V22.8847H181.88ZM195.152 22.8847V20.6554L204.176 5.4H195.501V3.03648H207.104V5.34629L198.133 20.5212H207.48V22.8847H195.152ZM208.961 12.974C208.961 11.5416 209.238 10.1987 209.793 8.94528C210.348 7.6919 211.1 6.60862 212.049 5.69544C212.998 4.76436 214.117 4.03024 215.407 3.49307C216.696 2.95591 218.083 2.68733 219.57 2.68733C220.984 2.68733 222.309 2.96486 223.545 3.51993C224.798 4.05709 225.89 4.79122 226.821 5.7223C227.752 6.65339 228.486 7.74562 229.024 8.999C229.579 10.2345 229.856 11.5595 229.856 12.974C229.856 14.3885 229.579 15.7225 229.024 16.9759C228.486 18.2293 227.743 19.3215 226.794 20.2526C225.863 21.1658 224.762 21.8909 223.491 22.4281C222.237 22.9652 220.895 23.2338 219.462 23.2338C218.012 23.2338 216.651 22.9652 215.38 22.4281C214.108 21.8909 212.998 21.1568 212.049 20.2257C211.1 19.2946 210.348 18.2114 209.793 16.9759C209.238 15.7225 208.961 14.3885 208.961 12.974ZM211.539 12.974C211.539 14.0483 211.745 15.0689 212.157 16.0358C212.586 16.9848 213.15 17.8174 213.849 18.5337C214.565 19.232 215.398 19.796 216.347 20.2257C217.313 20.6375 218.343 20.8435 219.435 20.8435C220.527 20.8435 221.548 20.6375 222.497 20.2257C223.446 19.8139 224.27 19.2588 224.968 18.5605C225.684 17.8443 226.248 17.0117 226.66 16.0627C227.072 15.1137 227.278 14.0931 227.278 13.0009C227.278 11.8907 227.072 10.8522 226.66 9.88532C226.248 8.91842 225.684 8.08582 224.968 7.38751C224.252 6.67129 223.41 6.10727 222.443 5.69544C221.476 5.28362 220.438 5.07771 219.328 5.07771C218.271 5.07771 217.269 5.29257 216.32 5.7223C215.371 6.13413 214.538 6.69815 213.822 7.41437C213.124 8.13058 212.569 8.97214 212.157 9.93903C211.745 10.888 211.539 11.8997 211.539 12.974Z" fill="#28150B"/>
</svg>
